<mxfile host="app.diagrams.net" agent="Mozilla/5.0 (Macintosh; Intel Mac OS X 10_15_7) AppleWebKit/537.36 (KHTML, like Gecko) Chrome/139.0.0.0 Safari/537.36 Edg/139.0.0.0" version="28.2.2">
  <diagram name="第 1 页" id="pVripiU5fOTv0RXEDSq1">
    <mxGraphModel dx="2147" dy="2124" grid="0" gridSize="10" guides="1" tooltips="1" connect="1" arrows="1" fold="1" page="0" pageScale="1" pageWidth="827" pageHeight="1169" math="0" shadow="0">
      <root>
        <mxCell id="0" />
        <mxCell id="1" parent="0" />
        <mxCell id="MY8jgwsOszjM8kaz8BeY-59" style="edgeStyle=orthogonalEdgeStyle;rounded=0;orthogonalLoop=1;jettySize=auto;html=1;entryX=0.5;entryY=0;entryDx=0;entryDy=0;" edge="1" parent="1" source="MY8jgwsOszjM8kaz8BeY-53" target="MY8jgwsOszjM8kaz8BeY-54">
          <mxGeometry relative="1" as="geometry" />
        </mxCell>
        <mxCell id="MY8jgwsOszjM8kaz8BeY-76" value="&lt;div class=&quot;lake-content&quot;&gt;&lt;font style=&quot;font-size: 14px; color: rgb(255, 51, 51);&quot;&gt;&lt;span class=&quot;ne-text&quot; style=&quot;&quot;&gt;4. 添加 fx graph 的 replace_pattern 功能，对接&lt;/span&gt;&lt;span class=&quot;ne-text&quot;&gt;融合算子&lt;/span&gt;&lt;/font&gt;&lt;/div&gt;" style="edgeLabel;html=1;align=center;verticalAlign=middle;resizable=0;points=[];labelBackgroundColor=#99FF99;" vertex="1" connectable="0" parent="MY8jgwsOszjM8kaz8BeY-59">
          <mxGeometry x="0.0833" relative="1" as="geometry">
            <mxPoint y="1" as="offset" />
          </mxGeometry>
        </mxCell>
        <mxCell id="MY8jgwsOszjM8kaz8BeY-2" style="edgeStyle=orthogonalEdgeStyle;rounded=0;orthogonalLoop=1;jettySize=auto;html=1;entryX=0;entryY=0.5;entryDx=0;entryDy=0;" edge="1" parent="1" source="MY8jgwsOszjM8kaz8BeY-3" target="MY8jgwsOszjM8kaz8BeY-50">
          <mxGeometry relative="1" as="geometry" />
        </mxCell>
        <mxCell id="MY8jgwsOszjM8kaz8BeY-53" value="&lt;b&gt;dynamo&lt;/b&gt;" style="rounded=1;whiteSpace=wrap;html=1;fillColor=#f8cecc;strokeColor=#b85450;fontSize=16;" vertex="1" parent="1">
          <mxGeometry x="-335" y="-859" width="120" height="60" as="geometry" />
        </mxCell>
        <mxCell id="MY8jgwsOszjM8kaz8BeY-3" value="" style="rounded=1;whiteSpace=wrap;html=1;fillColor=#f5f5f5;strokeColor=#666666;fontColor=#333333;fontSize=14;" vertex="1" parent="1">
          <mxGeometry x="686.5" y="730" width="308" height="478" as="geometry" />
        </mxCell>
        <mxCell id="MY8jgwsOszjM8kaz8BeY-60" style="edgeStyle=orthogonalEdgeStyle;rounded=0;orthogonalLoop=1;jettySize=auto;html=1;entryX=0.5;entryY=0;entryDx=0;entryDy=0;" edge="1" parent="1" source="MY8jgwsOszjM8kaz8BeY-54" target="MY8jgwsOszjM8kaz8BeY-55">
          <mxGeometry relative="1" as="geometry" />
        </mxCell>
        <mxCell id="MY8jgwsOszjM8kaz8BeY-74" value="&lt;div class=&quot;lake-content&quot;&gt;&lt;span class=&quot;ne-text&quot;&gt;&lt;font style=&quot;color: rgb(255, 51, 51); font-size: 14px;&quot;&gt;3. 目前框架无法支持backward&lt;/font&gt;&lt;/span&gt;&lt;/div&gt;" style="edgeLabel;html=1;align=center;verticalAlign=middle;resizable=0;points=[];labelBackgroundColor=#99FF99;" vertex="1" connectable="0" parent="MY8jgwsOszjM8kaz8BeY-60">
          <mxGeometry x="-0.175" y="2" relative="1" as="geometry">
            <mxPoint as="offset" />
          </mxGeometry>
        </mxCell>
        <mxCell id="MY8jgwsOszjM8kaz8BeY-4" value="&lt;b&gt;compute op&lt;/b&gt;" style="rounded=1;whiteSpace=wrap;html=1;fillColor=#f8cecc;strokeColor=#b85450;fontSize=14;" vertex="1" parent="1">
          <mxGeometry x="151.5" y="648" width="120" height="60" as="geometry" />
        </mxCell>
        <mxCell id="MY8jgwsOszjM8kaz8BeY-54" value="&lt;font&gt;&lt;b&gt;aot_autograd&lt;/b&gt;&lt;/font&gt;" style="rounded=1;whiteSpace=wrap;html=1;fillColor=#e1d5e7;strokeColor=#9673a6;fontSize=16;" vertex="1" parent="1">
          <mxGeometry x="-335" y="-715" width="120" height="60" as="geometry" />
        </mxCell>
        <mxCell id="MY8jgwsOszjM8kaz8BeY-5" style="edgeStyle=orthogonalEdgeStyle;rounded=0;orthogonalLoop=1;jettySize=auto;html=1;entryX=0.003;entryY=0.455;entryDx=0;entryDy=0;entryPerimeter=0;fontSize=14;" edge="1" parent="1" source="MY8jgwsOszjM8kaz8BeY-4" target="MY8jgwsOszjM8kaz8BeY-23">
          <mxGeometry relative="1" as="geometry" />
        </mxCell>
        <mxCell id="MY8jgwsOszjM8kaz8BeY-61" style="edgeStyle=orthogonalEdgeStyle;rounded=0;orthogonalLoop=1;jettySize=auto;html=1;" edge="1" parent="1" source="MY8jgwsOszjM8kaz8BeY-55" target="MY8jgwsOszjM8kaz8BeY-56">
          <mxGeometry relative="1" as="geometry" />
        </mxCell>
        <mxCell id="MY8jgwsOszjM8kaz8BeY-77" value="&lt;div class=&quot;lake-content&quot;&gt;&lt;span class=&quot;ne-text&quot;&gt;&lt;font style=&quot;font-size: 14px; color: rgb(255, 255, 255);&quot;&gt;TADE 在 torch.compile 静态图场景下只做一次分析&lt;/font&gt;&lt;/span&gt;&lt;/div&gt;" style="edgeLabel;html=1;align=center;verticalAlign=middle;resizable=0;points=[];labelBackgroundColor=#FF3333;" vertex="1" connectable="0" parent="MY8jgwsOszjM8kaz8BeY-61">
          <mxGeometry x="-0.2337" relative="1" as="geometry">
            <mxPoint as="offset" />
          </mxGeometry>
        </mxCell>
        <mxCell id="MY8jgwsOszjM8kaz8BeY-6" style="edgeStyle=orthogonalEdgeStyle;rounded=0;orthogonalLoop=1;jettySize=auto;html=1;entryX=0;entryY=0.5;entryDx=0;entryDy=0;fontSize=14;" edge="1" parent="1" source="MY8jgwsOszjM8kaz8BeY-7" target="MY8jgwsOszjM8kaz8BeY-38">
          <mxGeometry relative="1" as="geometry" />
        </mxCell>
        <mxCell id="MY8jgwsOszjM8kaz8BeY-55" value="&lt;font&gt;&lt;b&gt;TADE&lt;/b&gt;&lt;/font&gt;" style="rounded=1;whiteSpace=wrap;html=1;fillColor=#fff2cc;strokeColor=#d6b656;fontSize=14;" vertex="1" parent="1">
          <mxGeometry x="-336" y="-575" width="122" height="58.7" as="geometry" />
        </mxCell>
        <mxCell id="MY8jgwsOszjM8kaz8BeY-7" value="&lt;font&gt;&lt;b&gt;view-like op&lt;/b&gt;&lt;/font&gt;" style="rounded=1;whiteSpace=wrap;html=1;fillColor=#e1d5e7;strokeColor=#9673a6;fontSize=14;" vertex="1" parent="1">
          <mxGeometry x="150.5" y="947.4" width="120" height="60" as="geometry" />
        </mxCell>
        <mxCell id="MY8jgwsOszjM8kaz8BeY-92" value="" style="edgeStyle=orthogonalEdgeStyle;rounded=0;orthogonalLoop=1;jettySize=auto;html=1;" edge="1" parent="1" source="MY8jgwsOszjM8kaz8BeY-56" target="MY8jgwsOszjM8kaz8BeY-55">
          <mxGeometry relative="1" as="geometry" />
        </mxCell>
        <mxCell id="MY8jgwsOszjM8kaz8BeY-8" style="edgeStyle=orthogonalEdgeStyle;rounded=0;orthogonalLoop=1;jettySize=auto;html=1;entryX=0.5;entryY=0;entryDx=0;entryDy=0;exitX=1;exitY=0.5;exitDx=0;exitDy=0;fontSize=14;" edge="1" parent="1" target="MY8jgwsOszjM8kaz8BeY-33">
          <mxGeometry relative="1" as="geometry">
            <mxPoint x="744.5" y="977.4000000000001" as="sourcePoint" />
            <mxPoint x="942.25" y="815.4" as="targetPoint" />
            <Array as="points">
              <mxPoint x="737.5" y="977" />
              <mxPoint x="737.5" y="815" />
              <mxPoint x="910.5" y="815" />
            </Array>
          </mxGeometry>
        </mxCell>
        <mxCell id="MY8jgwsOszjM8kaz8BeY-9" value="&lt;span style=&quot;color: rgb(255, 51, 51); font-style: italic; font-weight: 700;&quot;&gt;fast_path&lt;/span&gt;" style="edgeLabel;html=1;align=center;verticalAlign=middle;resizable=0;points=[];fontSize=14;" connectable="0" vertex="1" parent="MY8jgwsOszjM8kaz8BeY-8">
          <mxGeometry x="0.0622" y="2" relative="1" as="geometry">
            <mxPoint x="-8" y="2" as="offset" />
          </mxGeometry>
        </mxCell>
        <mxCell id="MY8jgwsOszjM8kaz8BeY-98" style="edgeStyle=orthogonalEdgeStyle;rounded=0;orthogonalLoop=1;jettySize=auto;html=1;entryX=0.5;entryY=0;entryDx=0;entryDy=0;" edge="1" parent="1" source="MY8jgwsOszjM8kaz8BeY-56" target="MY8jgwsOszjM8kaz8BeY-99">
          <mxGeometry relative="1" as="geometry">
            <mxPoint x="-432" y="-351.1111111111111" as="targetPoint" />
          </mxGeometry>
        </mxCell>
        <mxCell id="MY8jgwsOszjM8kaz8BeY-104" value="SUCCESS" style="edgeLabel;html=1;align=center;verticalAlign=middle;resizable=0;points=[];labelBackgroundColor=#99FF99;fontColor=#FF3333;fontSize=14;" vertex="1" connectable="0" parent="MY8jgwsOszjM8kaz8BeY-98">
          <mxGeometry x="0.5936" y="-1" relative="1" as="geometry">
            <mxPoint as="offset" />
          </mxGeometry>
        </mxCell>
        <mxCell id="MY8jgwsOszjM8kaz8BeY-58" style="edgeStyle=orthogonalEdgeStyle;rounded=0;orthogonalLoop=1;jettySize=auto;html=1;entryX=0.5;entryY=0;entryDx=0;entryDy=0;" edge="1" parent="1" source="MY8jgwsOszjM8kaz8BeY-57" target="MY8jgwsOszjM8kaz8BeY-53">
          <mxGeometry relative="1" as="geometry" />
        </mxCell>
        <mxCell id="MY8jgwsOszjM8kaz8BeY-10" style="edgeStyle=orthogonalEdgeStyle;rounded=0;orthogonalLoop=1;jettySize=auto;html=1;entryX=0.5;entryY=1;entryDx=0;entryDy=0;exitX=1;exitY=0.5;exitDx=0;exitDy=0;fontSize=14;" edge="1" parent="1" source="MY8jgwsOszjM8kaz8BeY-15" target="MY8jgwsOszjM8kaz8BeY-33">
          <mxGeometry relative="1" as="geometry">
            <mxPoint x="792.5" y="977.4000000000001" as="sourcePoint" />
            <mxPoint x="989.5" y="1163.4" as="targetPoint" />
            <Array as="points">
              <mxPoint x="648.5" y="977" />
              <mxPoint x="738.5" y="977" />
              <mxPoint x="738.5" y="1163" />
              <mxPoint x="910.5" y="1163" />
            </Array>
          </mxGeometry>
        </mxCell>
        <mxCell id="MY8jgwsOszjM8kaz8BeY-11" value="&lt;b style=&quot;color: rgb(255, 51, 51);&quot;&gt;&lt;i&gt;general copy&lt;/i&gt;&lt;/b&gt;" style="edgeLabel;html=1;align=center;verticalAlign=middle;resizable=0;points=[];fontSize=14;" connectable="0" vertex="1" parent="MY8jgwsOszjM8kaz8BeY-10">
          <mxGeometry x="0.1715" relative="1" as="geometry">
            <mxPoint as="offset" />
          </mxGeometry>
        </mxCell>
        <mxCell id="MY8jgwsOszjM8kaz8BeY-101" style="edgeStyle=orthogonalEdgeStyle;rounded=0;orthogonalLoop=1;jettySize=auto;html=1;entryX=0.5;entryY=0;entryDx=0;entryDy=0;" edge="1" parent="1" source="MY8jgwsOszjM8kaz8BeY-56" target="MY8jgwsOszjM8kaz8BeY-102">
          <mxGeometry relative="1" as="geometry">
            <mxPoint x="-94.22222222222217" y="-320" as="targetPoint" />
          </mxGeometry>
        </mxCell>
        <mxCell id="MY8jgwsOszjM8kaz8BeY-106" value="failed" style="edgeLabel;html=1;align=center;verticalAlign=middle;resizable=0;points=[];labelBackgroundColor=#FF3333;fontColor=#FFFFFF;fontSize=14;" vertex="1" connectable="0" parent="MY8jgwsOszjM8kaz8BeY-101">
          <mxGeometry x="0.6743" relative="1" as="geometry">
            <mxPoint as="offset" />
          </mxGeometry>
        </mxCell>
        <mxCell id="MY8jgwsOszjM8kaz8BeY-57" value="&lt;b&gt;torch.compile&lt;/b&gt;" style="rounded=1;whiteSpace=wrap;html=1;fontSize=16;" vertex="1" parent="1">
          <mxGeometry x="-336" y="-996" width="122" height="58.7" as="geometry" />
        </mxCell>
        <mxCell id="MY8jgwsOszjM8kaz8BeY-12" style="edgeStyle=orthogonalEdgeStyle;rounded=0;orthogonalLoop=1;jettySize=auto;html=1;entryX=0;entryY=0.5;entryDx=0;entryDy=0;exitX=1;exitY=0.5;exitDx=0;exitDy=0;fontSize=14;" edge="1" parent="1" source="MY8jgwsOszjM8kaz8BeY-15" target="MY8jgwsOszjM8kaz8BeY-33">
          <mxGeometry relative="1" as="geometry">
            <mxPoint x="792.5" y="977.4000000000001" as="sourcePoint" />
            <Array as="points" />
          </mxGeometry>
        </mxCell>
        <mxCell id="MY8jgwsOszjM8kaz8BeY-13" value="&lt;font color=&quot;#ff3333&quot;&gt;&lt;span&gt;&lt;b&gt;&lt;i&gt;thnn&lt;/i&gt;&lt;/b&gt;&lt;/span&gt;&lt;/font&gt;" style="edgeLabel;html=1;align=center;verticalAlign=middle;resizable=0;points=[];fontSize=14;" connectable="0" vertex="1" parent="MY8jgwsOszjM8kaz8BeY-12">
          <mxGeometry x="0.1587" y="3" relative="1" as="geometry">
            <mxPoint x="21" y="3" as="offset" />
          </mxGeometry>
        </mxCell>
        <mxCell id="MY8jgwsOszjM8kaz8BeY-103" value="" style="edgeStyle=orthogonalEdgeStyle;rounded=0;orthogonalLoop=1;jettySize=auto;html=1;" edge="1" parent="1" source="MY8jgwsOszjM8kaz8BeY-56" target="MY8jgwsOszjM8kaz8BeY-100">
          <mxGeometry relative="1" as="geometry" />
        </mxCell>
        <mxCell id="MY8jgwsOszjM8kaz8BeY-105" value="failed" style="edgeLabel;html=1;align=center;verticalAlign=middle;resizable=0;points=[];labelBackgroundColor=#FF3333;fontColor=#FFFFFF;fontSize=14;" vertex="1" connectable="0" parent="MY8jgwsOszjM8kaz8BeY-103">
          <mxGeometry x="-0.3667" y="-1" relative="1" as="geometry">
            <mxPoint y="1" as="offset" />
          </mxGeometry>
        </mxCell>
        <mxCell id="MY8jgwsOszjM8kaz8BeY-63" style="edgeStyle=orthogonalEdgeStyle;rounded=0;orthogonalLoop=1;jettySize=auto;html=1;entryX=0;entryY=0.367;entryDx=0;entryDy=0;entryPerimeter=0;curved=1;dashed=1;" edge="1" parent="1" source="MY8jgwsOszjM8kaz8BeY-55" target="MY8jgwsOszjM8kaz8BeY-53">
          <mxGeometry relative="1" as="geometry">
            <Array as="points">
              <mxPoint x="-480" y="-546" />
              <mxPoint x="-480" y="-712" />
              <mxPoint x="-495" y="-712" />
              <mxPoint x="-495" y="-837" />
            </Array>
          </mxGeometry>
        </mxCell>
        <mxCell id="MY8jgwsOszjM8kaz8BeY-65" value="&lt;span style=&quot;&quot;&gt;1. TADEMode 模式下，dynamo 被屏蔽&lt;/span&gt;" style="edgeLabel;html=1;align=center;verticalAlign=middle;resizable=0;points=[];fontSize=14;fontColor=#FF3333;labelBackgroundColor=#99FF99;" vertex="1" connectable="0" parent="MY8jgwsOszjM8kaz8BeY-63">
          <mxGeometry x="-0.0255" y="-8" relative="1" as="geometry">
            <mxPoint x="-56" as="offset" />
          </mxGeometry>
        </mxCell>
        <mxCell id="MY8jgwsOszjM8kaz8BeY-14" style="edgeStyle=orthogonalEdgeStyle;rounded=0;orthogonalLoop=1;jettySize=auto;html=1;dashed=1;fontSize=14;" edge="1" parent="1" source="MY8jgwsOszjM8kaz8BeY-15" target="MY8jgwsOszjM8kaz8BeY-27">
          <mxGeometry relative="1" as="geometry" />
        </mxCell>
        <mxCell id="MY8jgwsOszjM8kaz8BeY-56" value="&lt;b&gt;eager&lt;/b&gt;" style="rounded=1;whiteSpace=wrap;html=1;fontSize=16;" vertex="1" parent="1">
          <mxGeometry x="-336" y="-432" width="122" height="58.7" as="geometry" />
        </mxCell>
        <mxCell id="MY8jgwsOszjM8kaz8BeY-70" style="edgeStyle=orthogonalEdgeStyle;rounded=0;orthogonalLoop=1;jettySize=auto;html=1;entryX=0.992;entryY=0.383;entryDx=0;entryDy=0;entryPerimeter=0;curved=1;dashed=1;" edge="1" parent="1" source="MY8jgwsOszjM8kaz8BeY-55" target="MY8jgwsOszjM8kaz8BeY-53">
          <mxGeometry relative="1" as="geometry">
            <Array as="points">
              <mxPoint x="70" y="-546" />
              <mxPoint x="70" y="-683" />
              <mxPoint x="-26" y="-683" />
              <mxPoint x="-26" y="-836" />
            </Array>
          </mxGeometry>
        </mxCell>
        <mxCell id="MY8jgwsOszjM8kaz8BeY-71" value="&lt;font style=&quot;font-size: 14px; color: rgb(255, 51, 51);&quot;&gt;2. TADE 注册的 hook 触发 recompile 与 graph break&lt;/font&gt;" style="edgeLabel;html=1;align=center;verticalAlign=middle;resizable=0;points=[];labelBackgroundColor=#99FF99;" vertex="1" connectable="0" parent="MY8jgwsOszjM8kaz8BeY-70">
          <mxGeometry x="0.304" y="-3" relative="1" as="geometry">
            <mxPoint x="80" y="-1" as="offset" />
          </mxGeometry>
        </mxCell>
        <mxCell id="MY8jgwsOszjM8kaz8BeY-15" value="&lt;font&gt;&lt;b&gt;is_thrive_contiguous&lt;/b&gt;&lt;/font&gt;" style="rounded=1;whiteSpace=wrap;html=1;fillColor=#fff2cc;strokeColor=#d6b656;fontSize=14;" vertex="1" parent="1">
          <mxGeometry x="496.5" y="948.8" width="152" height="58.6" as="geometry" />
        </mxCell>
        <mxCell id="MY8jgwsOszjM8kaz8BeY-78" value="" style="rounded=0;whiteSpace=wrap;html=1;fillColor=#99FF99;" vertex="1" parent="1">
          <mxGeometry x="-598" y="-987.0999999999999" width="85" height="25" as="geometry" />
        </mxCell>
        <mxCell id="MY8jgwsOszjM8kaz8BeY-16" style="edgeStyle=orthogonalEdgeStyle;rounded=0;orthogonalLoop=1;jettySize=auto;html=1;fontSize=14;" edge="1" parent="1" source="MY8jgwsOszjM8kaz8BeY-38" target="MY8jgwsOszjM8kaz8BeY-15">
          <mxGeometry relative="1" as="geometry" />
        </mxCell>
        <mxCell id="MY8jgwsOszjM8kaz8BeY-79" value="" style="rounded=0;whiteSpace=wrap;html=1;fillColor=#FF3333;" vertex="1" parent="1">
          <mxGeometry x="-598" y="-952.8" width="85" height="25" as="geometry" />
        </mxCell>
        <mxCell id="MY8jgwsOszjM8kaz8BeY-17" value="" style="group;fontSize=14;" connectable="0" vertex="1" parent="1">
          <mxGeometry x="-70.5" y="557" width="135" height="120" as="geometry" />
        </mxCell>
        <mxCell id="MY8jgwsOszjM8kaz8BeY-18" value="" style="rounded=0;whiteSpace=wrap;html=1;dashed=1;container=0;fontSize=14;" vertex="1" parent="MY8jgwsOszjM8kaz8BeY-17">
          <mxGeometry width="135" height="120" as="geometry" />
        </mxCell>
        <mxCell id="MY8jgwsOszjM8kaz8BeY-19" value="SplitInfo 1" style="rounded=1;whiteSpace=wrap;html=1;fillColor=#ffe6cc;strokeColor=#d79b00;container=0;fontSize=14;" vertex="1" parent="MY8jgwsOszjM8kaz8BeY-17">
          <mxGeometry x="16.62313432835821" y="43.5" width="101.75373134328358" height="23.5" as="geometry" />
        </mxCell>
        <mxCell id="MY8jgwsOszjM8kaz8BeY-20" value="&lt;b&gt;&lt;font&gt;Tensor a&lt;/font&gt;&lt;/b&gt;" style="text;html=1;align=center;verticalAlign=middle;whiteSpace=wrap;rounded=0;container=0;fontSize=14;" vertex="1" parent="MY8jgwsOszjM8kaz8BeY-17">
          <mxGeometry x="10.578358208955223" y="4" width="60.447761194029844" height="30" as="geometry" />
        </mxCell>
        <mxCell id="MY8jgwsOszjM8kaz8BeY-21" value="ParallelInfo 1" style="rounded=1;whiteSpace=wrap;html=1;fillColor=#ffe6cc;strokeColor=#d79b00;container=0;fontSize=14;" vertex="1" parent="MY8jgwsOszjM8kaz8BeY-17">
          <mxGeometry x="16.62313432835821" y="82" width="101.75373134328358" height="25" as="geometry" />
        </mxCell>
        <mxCell id="MY8jgwsOszjM8kaz8BeY-80" value="：DONE" style="text;html=1;align=center;verticalAlign=middle;whiteSpace=wrap;rounded=0;fontSize=14;fontStyle=1" vertex="1" parent="1">
          <mxGeometry x="-508" y="-989.9999999999999" width="60" height="30.8" as="geometry" />
        </mxCell>
        <mxCell id="MY8jgwsOszjM8kaz8BeY-22" value="" style="group;fontSize=14;" connectable="0" vertex="1" parent="1">
          <mxGeometry x="379.5" y="623" width="134" height="120" as="geometry" />
        </mxCell>
        <mxCell id="MY8jgwsOszjM8kaz8BeY-23" value="" style="rounded=0;whiteSpace=wrap;html=1;movable=1;resizable=1;rotatable=1;deletable=1;editable=1;locked=0;connectable=1;dashed=1;container=0;fontSize=14;" vertex="1" parent="MY8jgwsOszjM8kaz8BeY-22">
          <mxGeometry width="134" height="120" as="geometry" />
        </mxCell>
        <mxCell id="MY8jgwsOszjM8kaz8BeY-24" value="SplitInfo 2" style="rounded=1;whiteSpace=wrap;html=1;fillColor=#d5e8d4;strokeColor=#82b366;container=0;fontSize=14;" vertex="1" parent="MY8jgwsOszjM8kaz8BeY-22">
          <mxGeometry x="16.5" y="41.5" width="101" height="23.5" as="geometry" />
        </mxCell>
        <mxCell id="MY8jgwsOszjM8kaz8BeY-25" value="&lt;b&gt;&lt;font&gt;Tensor b&lt;/font&gt;&lt;/b&gt;" style="text;html=1;align=center;verticalAlign=middle;whiteSpace=wrap;rounded=0;container=0;fontSize=14;" vertex="1" parent="MY8jgwsOszjM8kaz8BeY-22">
          <mxGeometry x="6" y="2" width="64.5" height="30" as="geometry" />
        </mxCell>
        <mxCell id="MY8jgwsOszjM8kaz8BeY-26" value="ParallelInfo 2" style="rounded=1;whiteSpace=wrap;html=1;fillColor=#d5e8d4;strokeColor=#82b366;container=0;fontSize=14;" vertex="1" parent="MY8jgwsOszjM8kaz8BeY-22">
          <mxGeometry x="16.5" y="80" width="101" height="25" as="geometry" />
        </mxCell>
        <mxCell id="MY8jgwsOszjM8kaz8BeY-81" value="：WIP" style="text;html=1;align=center;verticalAlign=middle;whiteSpace=wrap;rounded=0;fontSize=14;fontStyle=1" vertex="1" parent="1">
          <mxGeometry x="-513" y="-958.5999999999999" width="60" height="30.8" as="geometry" />
        </mxCell>
        <mxCell id="MY8jgwsOszjM8kaz8BeY-27" value="at::native::contiguous&lt;br&gt;+&lt;br&gt;parallelinfo == SplitInfo" style="ellipse;shape=cloud;whiteSpace=wrap;html=1;dashed=1;fontSize=14;" vertex="1" parent="1">
          <mxGeometry x="458.25" y="803" width="228.5" height="102" as="geometry" />
        </mxCell>
        <mxCell id="MY8jgwsOszjM8kaz8BeY-83" value="功能打通可视化图" style="text;html=1;align=center;verticalAlign=middle;whiteSpace=wrap;rounded=0;fontStyle=1;fontSize=34;" vertex="1" parent="1">
          <mxGeometry x="-423" y="-1075" width="334" height="30" as="geometry" />
        </mxCell>
        <mxCell id="MY8jgwsOszjM8kaz8BeY-82" value="Text" style="text;html=1;align=center;verticalAlign=middle;whiteSpace=wrap;rounded=0;" vertex="1" parent="1">
          <mxGeometry x="-238" y="-737" width="60" height="30" as="geometry" />
        </mxCell>
        <mxCell id="MY8jgwsOszjM8kaz8BeY-28" style="edgeStyle=orthogonalEdgeStyle;rounded=0;orthogonalLoop=1;jettySize=auto;html=1;dashed=1;dashPattern=8 8;entryX=1;entryY=0;entryDx=0;entryDy=0;fontSize=14;" edge="1" parent="1" source="MY8jgwsOszjM8kaz8BeY-48" target="MY8jgwsOszjM8kaz8BeY-39">
          <mxGeometry relative="1" as="geometry">
            <mxPoint x="674.5" y="911" as="targetPoint" />
          </mxGeometry>
        </mxCell>
        <mxCell id="MY8jgwsOszjM8kaz8BeY-29" value="&lt;font style=&quot;color: rgb(255, 51, 51);&quot;&gt;&lt;b&gt;consumed&lt;/b&gt;&lt;/font&gt;" style="edgeLabel;html=1;align=center;verticalAlign=middle;resizable=0;points=[];fontSize=14;" connectable="0" vertex="1" parent="MY8jgwsOszjM8kaz8BeY-28">
          <mxGeometry x="-0.1681" y="-3" relative="1" as="geometry">
            <mxPoint x="1" y="-3" as="offset" />
          </mxGeometry>
        </mxCell>
        <mxCell id="MY8jgwsOszjM8kaz8BeY-99" value="&lt;b&gt;qwen2_mlp_layer&lt;/b&gt;" style="rounded=1;whiteSpace=wrap;html=1;fillColor=#dae8fc;strokeColor=#6c8ebf;fontSize=14;" vertex="1" parent="1">
          <mxGeometry x="-534" y="-316" width="122" height="58.7" as="geometry" />
        </mxCell>
        <mxCell id="MY8jgwsOszjM8kaz8BeY-30" style="edgeStyle=orthogonalEdgeStyle;rounded=0;orthogonalLoop=1;jettySize=auto;html=1;entryX=1;entryY=0;entryDx=0;entryDy=0;dashed=1;dashPattern=8 8;exitX=1;exitY=0.5;exitDx=0;exitDy=0;fontSize=14;" edge="1" parent="1" source="MY8jgwsOszjM8kaz8BeY-46" target="MY8jgwsOszjM8kaz8BeY-39">
          <mxGeometry relative="1" as="geometry">
            <mxPoint x="258.5" y="816.0005882352941" as="sourcePoint" />
            <mxPoint x="704.0860000000002" y="923.53" as="targetPoint" />
          </mxGeometry>
        </mxCell>
        <mxCell id="MY8jgwsOszjM8kaz8BeY-31" value="&lt;font style=&quot;color: rgb(255, 51, 51);&quot;&gt;&lt;b&gt;consumed&lt;/b&gt;&lt;/font&gt;" style="edgeLabel;html=1;align=center;verticalAlign=middle;resizable=0;points=[];fontSize=14;" connectable="0" vertex="1" parent="MY8jgwsOszjM8kaz8BeY-30">
          <mxGeometry x="0.0536" relative="1" as="geometry">
            <mxPoint x="-3" y="-1" as="offset" />
          </mxGeometry>
        </mxCell>
        <mxCell id="MY8jgwsOszjM8kaz8BeY-100" value="&lt;b&gt;qwen2_5_0_5b&lt;/b&gt;" style="rounded=1;whiteSpace=wrap;html=1;fillColor=#dae8fc;strokeColor=#6c8ebf;fontSize=14;" vertex="1" parent="1">
          <mxGeometry x="-335" y="-313" width="122" height="58.7" as="geometry" />
        </mxCell>
        <mxCell id="MY8jgwsOszjM8kaz8BeY-32" value="" style="group;fontSize=14;" connectable="0" vertex="1" parent="1">
          <mxGeometry x="843.5" y="918.0999999999999" width="134" height="120" as="geometry" />
        </mxCell>
        <mxCell id="MY8jgwsOszjM8kaz8BeY-33" value="" style="rounded=0;whiteSpace=wrap;html=1;movable=1;resizable=1;rotatable=1;deletable=1;editable=1;locked=0;connectable=1;dashed=1;container=0;fontSize=14;" vertex="1" parent="MY8jgwsOszjM8kaz8BeY-32">
          <mxGeometry width="134" height="120" as="geometry" />
        </mxCell>
        <mxCell id="MY8jgwsOszjM8kaz8BeY-34" value="&lt;b&gt;&lt;font&gt;Tensor c&lt;/font&gt;&lt;/b&gt;" style="text;html=1;align=center;verticalAlign=middle;whiteSpace=wrap;rounded=0;container=0;fontSize=14;" vertex="1" parent="MY8jgwsOszjM8kaz8BeY-32">
          <mxGeometry x="6" y="2" width="64.5" height="30" as="geometry" />
        </mxCell>
        <mxCell id="MY8jgwsOszjM8kaz8BeY-35" value="ParallelInfo 2" style="rounded=1;whiteSpace=wrap;html=1;fillColor=#d5e8d4;strokeColor=#82b366;container=0;fontSize=14;" vertex="1" parent="MY8jgwsOszjM8kaz8BeY-32">
          <mxGeometry x="16.5" y="80" width="101" height="25" as="geometry" />
        </mxCell>
        <mxCell id="MY8jgwsOszjM8kaz8BeY-36" value="SplitInfo 2" style="rounded=1;whiteSpace=wrap;html=1;fillColor=#d5e8d4;strokeColor=#82b366;container=0;fontSize=14;" vertex="1" parent="MY8jgwsOszjM8kaz8BeY-32">
          <mxGeometry x="16.5" y="41.60000000000002" width="101" height="23.5" as="geometry" />
        </mxCell>
        <mxCell id="MY8jgwsOszjM8kaz8BeY-102" value="&lt;b&gt;qwen3_moe&lt;/b&gt;" style="rounded=1;whiteSpace=wrap;html=1;fillColor=#dae8fc;strokeColor=#6c8ebf;fontSize=14;" vertex="1" parent="1">
          <mxGeometry x="-136" y="-313" width="122" height="58.7" as="geometry" />
        </mxCell>
        <mxCell id="MY8jgwsOszjM8kaz8BeY-37" value="" style="group;fontSize=14;" connectable="0" vertex="1" parent="1">
          <mxGeometry x="319.5" y="917.4" width="134" height="120" as="geometry" />
        </mxCell>
        <mxCell id="MY8jgwsOszjM8kaz8BeY-38" value="" style="rounded=0;whiteSpace=wrap;html=1;movable=1;resizable=1;rotatable=1;deletable=1;editable=1;locked=0;connectable=1;dashed=1;container=0;fontSize=14;" vertex="1" parent="MY8jgwsOszjM8kaz8BeY-37">
          <mxGeometry width="134" height="120" as="geometry" />
        </mxCell>
        <mxCell id="MY8jgwsOszjM8kaz8BeY-39" value="&lt;b&gt;&lt;font&gt;Tensor b&lt;/font&gt;&lt;/b&gt;" style="text;html=1;align=center;verticalAlign=middle;whiteSpace=wrap;rounded=0;container=0;fontSize=14;" vertex="1" parent="MY8jgwsOszjM8kaz8BeY-37">
          <mxGeometry x="6" width="64.5" height="30" as="geometry" />
        </mxCell>
        <mxCell id="MY8jgwsOszjM8kaz8BeY-40" value="ParallelInfo 2" style="rounded=1;whiteSpace=wrap;html=1;fillColor=#d5e8d4;strokeColor=#82b366;container=0;fontSize=14;" vertex="1" parent="MY8jgwsOszjM8kaz8BeY-37">
          <mxGeometry x="16.5" y="78" width="101" height="25" as="geometry" />
        </mxCell>
        <mxCell id="MY8jgwsOszjM8kaz8BeY-41" value="SplitInfo 1" style="rounded=1;whiteSpace=wrap;html=1;fillColor=#ffe6cc;strokeColor=#d79b00;container=0;fontSize=14;" vertex="1" parent="MY8jgwsOszjM8kaz8BeY-37">
          <mxGeometry x="16.5" y="43" width="101" height="23.5" as="geometry" />
        </mxCell>
        <mxCell id="MY8jgwsOszjM8kaz8BeY-42" value="&lt;b style=&quot;color: rgb(51, 51, 51);&quot;&gt;ViewInferEngine&lt;/b&gt;" style="text;html=1;align=center;verticalAlign=middle;whiteSpace=wrap;rounded=0;fontSize=14;" vertex="1" parent="1">
          <mxGeometry x="739.5" y="747" width="60" height="30" as="geometry" />
        </mxCell>
        <mxCell id="MY8jgwsOszjM8kaz8BeY-43" value="" style="group;fontSize=14;" connectable="0" vertex="1" parent="1">
          <mxGeometry x="-116" y="730" width="226" height="184.5" as="geometry" />
        </mxCell>
        <mxCell id="MY8jgwsOszjM8kaz8BeY-44" value="" style="ellipse;whiteSpace=wrap;html=1;fontSize=14;" vertex="1" parent="MY8jgwsOszjM8kaz8BeY-43">
          <mxGeometry width="226" height="184.5" as="geometry" />
        </mxCell>
        <mxCell id="MY8jgwsOszjM8kaz8BeY-45" value="&lt;font&gt;&lt;b&gt;Tade Mode dispatch&lt;/b&gt;&lt;/font&gt;" style="text;html=1;align=center;verticalAlign=middle;whiteSpace=wrap;rounded=0;fontSize=14;" vertex="1" parent="MY8jgwsOszjM8kaz8BeY-43">
          <mxGeometry x="43.5" y="18.25" width="139" height="30" as="geometry" />
        </mxCell>
        <mxCell id="MY8jgwsOszjM8kaz8BeY-46" value="ParallelInfo 2" style="rounded=1;whiteSpace=wrap;html=1;fillColor=#d5e8d4;strokeColor=#82b366;container=0;fontSize=14;" vertex="1" parent="MY8jgwsOszjM8kaz8BeY-43">
          <mxGeometry x="65" y="90.25" width="101" height="25" as="geometry" />
        </mxCell>
        <mxCell id="MY8jgwsOszjM8kaz8BeY-47" value="SplitInfo 2" style="rounded=1;whiteSpace=wrap;html=1;fillColor=#d5e8d4;strokeColor=#82b366;container=0;fontSize=14;" vertex="1" parent="MY8jgwsOszjM8kaz8BeY-43">
          <mxGeometry x="65" y="52.25" width="101" height="23.5" as="geometry" />
        </mxCell>
        <mxCell id="MY8jgwsOszjM8kaz8BeY-48" value="MeshAllocInfosManager" style="rounded=1;whiteSpace=wrap;html=1;fillColor=#d5e8d4;strokeColor=#82b366;container=0;fontSize=14;" vertex="1" parent="MY8jgwsOszjM8kaz8BeY-43">
          <mxGeometry x="38" y="130.25" width="152" height="25" as="geometry" />
        </mxCell>
        <mxCell id="MY8jgwsOszjM8kaz8BeY-49" style="edgeStyle=orthogonalEdgeStyle;rounded=0;orthogonalLoop=1;jettySize=auto;html=1;entryX=0.5;entryY=0;entryDx=0;entryDy=0;fontSize=14;" edge="1" parent="1" source="MY8jgwsOszjM8kaz8BeY-18" target="MY8jgwsOszjM8kaz8BeY-44">
          <mxGeometry relative="1" as="geometry" />
        </mxCell>
        <mxCell id="MY8jgwsOszjM8kaz8BeY-50" value="&lt;font&gt;&lt;b&gt;compute op&lt;/b&gt;&lt;/font&gt;" style="rounded=1;whiteSpace=wrap;html=1;fillColor=#f8cecc;strokeColor=#b85450;fontSize=14;" vertex="1" parent="1">
          <mxGeometry x="1028.5" y="939" width="120" height="60" as="geometry" />
        </mxCell>
        <mxCell id="MY8jgwsOszjM8kaz8BeY-51" style="edgeStyle=orthogonalEdgeStyle;rounded=0;orthogonalLoop=1;jettySize=auto;html=1;entryX=0;entryY=0.5;entryDx=0;entryDy=0;" edge="1" parent="1" source="MY8jgwsOszjM8kaz8BeY-44" target="MY8jgwsOszjM8kaz8BeY-4">
          <mxGeometry relative="1" as="geometry" />
        </mxCell>
        <mxCell id="MY8jgwsOszjM8kaz8BeY-52" style="edgeStyle=orthogonalEdgeStyle;rounded=0;orthogonalLoop=1;jettySize=auto;html=1;entryX=0;entryY=0.5;entryDx=0;entryDy=0;" edge="1" parent="1" source="MY8jgwsOszjM8kaz8BeY-44" target="MY8jgwsOszjM8kaz8BeY-7">
          <mxGeometry relative="1" as="geometry" />
        </mxCell>
      </root>
    </mxGraphModel>
  </diagram>
</mxfile>
